<?xml version="1.0" encoding="utf-8"?>
<!-- Generator: Adobe Illustrator 22.0.1, SVG Export Plug-In . SVG Version: 6.00 Build 0)  -->
<svg version="1.1" id="Layer_1" xmlns="http://www.w3.org/2000/svg" xmlns:xlink="http://www.w3.org/1999/xlink" x="0px" y="0px"
	 viewBox="0 0 1000 1000" style="enable-background:new 0 0 1000 1000;" xml:space="preserve">
<style type="text/css">
	.st0{fill-rule:evenodd;clip-rule:evenodd;fill:#ECEDEB;}
	.st1{fill-rule:evenodd;clip-rule:evenodd;fill:#E0E0E1;}
	.st2{fill-rule:evenodd;clip-rule:evenodd;fill:#D3D4D3;}
	.st3{fill-rule:evenodd;clip-rule:evenodd;fill:#C8C9C9;}
	.st4{fill-rule:evenodd;clip-rule:evenodd;fill:#BDBFBF;}
	.st5{fill-rule:evenodd;clip-rule:evenodd;fill:#FFFFFF;}
	.st6{fill-rule:evenodd;clip-rule:evenodd;fill:#ED1C24;}
	.st7{fill-rule:evenodd;clip-rule:evenodd;fill:#50B848;}
	.st8{fill-rule:evenodd;clip-rule:evenodd;fill:#00683F;}
	.st9{fill:#CA2820;}
	.st10{fill:#830709;}
	.st11{fill:#FBF9F9;}
</style>
<g>
	<path class="st0" d="M202.3,851.7V130.2c0-16.9,13.8-30.6,30.7-30.6h535.2c16.9,0,30.7,13.8,30.7,30.6v700.7l-4.8,3.4
		c-42.3,30.1-88.3,51-139.9,58.4c-43.6,6.3-86.5,2.3-129.4-6.6c-6.6-1.4-13.1-2.8-19.6-4.4c-33.9-8-67.3-18.2-101-27.1
		c-32-8.4-64.7-15.6-97.8-17.6c-30.4-1.8-60,1-89.1,10L202.3,851.7L202.3,851.7z"/>
	<path class="st1" d="M204.6,848.6V130.2c0-15.6,12.8-28.3,28.4-28.3h535.2c15.6,0,28.4,12.7,28.4,28.3v699.5l-3.9,2.7
		c-42,29.9-87.7,50.6-138.9,58c-43.4,6.2-86,2.3-128.6-6.5c-6.5-1.3-13-2.8-19.5-4.3c-33.9-8-67.2-18.2-100.9-27.1
		c-32.2-8.4-65-15.7-98.3-17.7c-30.7-1.8-60.5,1-89.9,10.1L204.6,848.6L204.6,848.6z"/>
	<path class="st2" d="M206.9,845.5V130.2c0-14.3,11.8-26,26.1-26h535.2c14.3,0,26.1,11.7,26.1,26v698.3l-2.9,2.1
		c-41.7,29.7-87,50.3-137.9,57.6c-43.1,6.2-85.4,2.2-127.8-6.5c-6.5-1.3-13-2.8-19.5-4.3c-33.9-8-67.2-18.2-100.9-27
		c-32.3-8.5-65.3-15.8-98.7-17.7c-30.9-1.8-61.1,1-90.7,10.2L206.9,845.5L206.9,845.5z"/>
	<path class="st3" d="M209.2,842.4V130.2c0-13.1,10.7-23.7,23.8-23.7h535.2c13.1,0,23.8,10.7,23.8,23.7v697.1l-1.9,1.4
		c-41.4,29.5-86.4,49.9-136.9,57.2c-42.8,6.2-84.9,2.2-127.1-6.5c-6.5-1.3-13-2.8-19.4-4.3c-33.9-8-67.2-18.2-100.8-27
		c-32.5-8.5-65.6-15.8-99.2-17.8c-31.2-1.9-61.6,1-91.5,10.3L209.2,842.4L209.2,842.4z"/>
	<path class="st4" d="M211.5,839.2V130.2c0-11.8,9.7-21.5,21.5-21.5h535.2c11.8,0,21.5,9.7,21.5,21.5v695.9l-1,0.7
		c-41.1,29.2-85.8,49.6-135.9,56.8c-42.6,6.1-84.4,2.2-126.3-6.5c-6.5-1.3-12.9-2.8-19.3-4.3c-33.9-8-67.1-18.2-100.8-27
		c-32.6-8.6-65.9-15.9-99.6-17.9c-31.5-1.9-62.2,1.1-92.4,10.4L211.5,839.2L211.5,839.2z"/>
	<path class="st5" d="M213.8,836.1v-706c0-10.5,8.7-19.2,19.2-19.2h535.2c10.5,0,19.2,8.6,19.2,19.2v694.7
		C571,979,402.9,777.3,213.8,836.1L213.8,836.1z"/>
	<path class="st6" d="M213.8,462.5h573.6v350.1C574.7,914.6,348.8,734,213.8,823.8V462.5L213.8,462.5z"/>
	<path class="st6" d="M213.8,836.1c135.1-89.8,360.9,89.8,573.6-11.2C580.9,976.9,394.3,779.9,213.8,836.1L213.8,836.1z"/>
	<path class="st7" d="M653.7,276.6c24.9-7.4,45.1-19.4,61.6-35.2l25.3,28.4c-218.9,100-356.7-71.5-479.8,31.6
		C408.7,92.7,690.8,71.6,653.7,276.6L653.7,276.6z"/>
	<path class="st8" d="M281.7,308.7c116.8-76.5,207.3,39.6,378.8,7.4c12.3,79.7-50.5,122.9-123.1,111.5
		C468.6,416.7,384.5,340.3,281.7,308.7L281.7,308.7z"/>
	<path class="st9" d="M702.8,621.5V510.3c10.1,0,24.4,4,24.4,13.1v111.2C717.9,634.6,702.8,631.8,702.8,621.5L702.8,621.5z
		 M394.6,629.5c6.2,0,11.2,5,11.2,11.2c0,6.2-5,11.2-11.2,11.2c-6.2,0-11.2-5-11.2-11.2C383.3,634.5,388.3,629.5,394.6,629.5
		L394.6,629.5z M421.4,629.5c6.2,0,11.2,5,11.2,11.2c0,6.2-5,11.2-11.2,11.2c-6.2,0-11.2-5-11.2-11.2
		C410.1,634.5,415.2,629.5,421.4,629.5L421.4,629.5z M465.6,526.9c6.2,0,11.2,5,11.2,11.2c0,6.2-5,11.2-11.2,11.2
		c-6.2,0-11.2-5-11.2-11.2C454.3,531.9,459.4,526.9,465.6,526.9L465.6,526.9z M492.4,526.9c6.2,0,11.2,5,11.2,11.2
		c0,6.2-5,11.2-11.2,11.2c-6.2,0-11.2-5-11.2-11.2C481.2,531.9,486.2,526.9,492.4,526.9L492.4,526.9z M479,503.8
		c6.2,0,11.2,5,11.2,11.2c0,6.2-5,11.2-11.2,11.2s-11.2-5-11.2-11.2C467.8,508.8,472.8,503.8,479,503.8L479,503.8z M309.1,621.4
		l-0.4,18.9c0,9.8-27,18.2-34.7,3.2l0-8.7c5.4,0,12,1.7,12-5.1V568c0-32.7,52.1-16.2,71.2-27.2v58.6H426v-43.6
		c0-11.5,12.9-15,24.4-15v58.6h29.2l0.2,26.9c0,11.5,26.1,11.6,26.1,0.3V556c0-8.3,13.9-15.4,24.4-15.4l-0.1,58.8h33.6l0.1-35.9
		c0-23.7,56.7-37.8,63.2,3.4c-8.5-8.5-36.8-17.4-36.8-0.8l0,33.3h37l0.2,26.9c0,11.5,26.1,11.6,26.1,0.3V523.9
		c0-7.3,13.9-13.7,24.4-13.7l-0.2,111.1c0,48.5-72.5,48.9-72.5,0H530c0,48.5-72.5,48.9-72.5,0H309.1L309.1,621.4z M308.1,599.4h27.2
		v-21.2c-5.5-16-23-14.3-27.2-0.1L308.1,599.4L308.1,599.4z"/>
	<path class="st10" d="M702.8,619.1V508c10.1,0,24.4,4,24.4,13.1v111.2C717.9,632.3,702.8,629.4,702.8,619.1L702.8,619.1z
		 M394.6,627.1c6.2,0,11.2,5,11.2,11.2c0,6.2-5,11.2-11.2,11.2c-6.2,0-11.2-5-11.2-11.2C383.3,632.2,388.3,627.1,394.6,627.1
		L394.6,627.1z M421.4,627.1c6.2,0,11.2,5,11.2,11.2c0,6.2-5,11.2-11.2,11.2c-6.2,0-11.2-5-11.2-11.2
		C410.1,632.2,415.2,627.1,421.4,627.1L421.4,627.1z M465.6,524.5c6.2,0,11.2,5,11.2,11.2c0,6.2-5,11.2-11.2,11.2
		c-6.2,0-11.2-5-11.2-11.2C454.3,529.6,459.4,524.5,465.6,524.5L465.6,524.5z M492.4,524.5c6.2,0,11.2,5,11.2,11.2
		c0,6.2-5,11.2-11.2,11.2c-6.2,0-11.2-5-11.2-11.2C481.2,529.6,486.2,524.5,492.4,524.5L492.4,524.5z M479,501.4
		c6.2,0,11.2,5,11.2,11.2c0,6.2-5,11.2-11.2,11.2s-11.2-5-11.2-11.2C467.8,506.5,472.8,501.4,479,501.4L479,501.4z M309.1,619
		l-0.4,18.9c0,9.8-27,18.2-34.7,3.2l0-8.7c5.4,0,12,1.7,12-5.1v-61.6c0-32.7,52.1-16.2,71.2-27.2V597H426v-43.6
		c0-11.5,12.9-15,24.4-15V597h29.2l0.2,26.9c0,11.5,26.1,11.6,26.1,0.3v-70.6c0-8.3,13.9-15.4,24.4-15.4l-0.1,58.8h33.6l0.1-35.9
		c0-23.7,56.7-37.8,63.2,3.4c-8.5-8.5-36.8-17.4-36.8-0.8l0,33.3h37l0.2,26.9c0,11.5,26.1,11.6,26.1,0.3V521.6
		c0-7.3,13.9-13.7,24.4-13.7L677.6,619c0,48.5-72.5,48.9-72.5,0H530c0,48.5-72.5,48.9-72.5,0H309.1L309.1,619z M308.1,597h27.2
		v-21.2c-5.5-16-23-14.3-27.2-0.1L308.1,597L308.1,597z"/>
	<path class="st11" d="M702.8,616V504.8c10.1,0,24.4,4,24.4,13.1v111.2C717.9,629.1,702.8,626.3,702.8,616L702.8,616z M394.6,624
		c6.2,0,11.2,5,11.2,11.2c0,6.2-5,11.2-11.2,11.2c-6.2,0-11.2-5-11.2-11.2C383.3,629,388.3,624,394.6,624L394.6,624z M421.4,624
		c6.2,0,11.2,5,11.2,11.2c0,6.2-5,11.2-11.2,11.2c-6.2,0-11.2-5-11.2-11.2C410.1,629,415.2,624,421.4,624L421.4,624z M465.6,521.4
		c6.2,0,11.2,5,11.2,11.2c0,6.2-5,11.2-11.2,11.2c-6.2,0-11.2-5-11.2-11.2C454.3,526.4,459.4,521.4,465.6,521.4L465.6,521.4z
		 M492.4,521.4c6.2,0,11.2,5,11.2,11.2c0,6.2-5,11.2-11.2,11.2c-6.2,0-11.2-5-11.2-11.2C481.2,526.4,486.2,521.4,492.4,521.4
		L492.4,521.4z M479,498.3c6.2,0,11.2,5,11.2,11.2c0,6.2-5,11.2-11.2,11.2s-11.2-5-11.2-11.2C467.8,503.3,472.8,498.3,479,498.3
		L479,498.3z M309.1,615.8l-0.4,18.9c0,9.8-27,18.2-34.7,3.2l0-8.7c5.4,0,12,1.7,12-5.1v-61.6c0-32.7,52.1-16.2,71.2-27.2v58.6H426
		v-43.6c0-11.5,12.9-15,24.4-15v58.6h29.2l0.2,26.9c0,11.5,26.1,11.6,26.1,0.3v-70.6c0-8.3,13.9-15.4,24.4-15.4l-0.1,58.8h33.6
		l0.1-35.9c0-23.7,56.7-37.8,63.2,3.4c-8.5-8.5-36.8-17.4-36.8-0.8l0,33.3h37l0.2,26.9c0,11.5,26.1,11.6,26.1,0.3V518.4
		c0-7.3,13.9-13.7,24.4-13.7l-0.2,111.1c0,48.5-72.5,48.9-72.5,0H530c0,48.5-72.5,48.9-72.5,0H309.1L309.1,615.8z M308.1,593.9h27.2
		v-21.2c-5.5-16-23-14.3-27.2-0.1L308.1,593.9L308.1,593.9z"/>
	<path class="st9" d="M623.5,730.1c0-34,53.7-29.5,53.7-13.2c0-17.9,50.7-22.7,50.7,7.2l0,49.1c-15,0-18.8-3-18.8-7.9l0-36.5
		c0-14.8-24-14.8-24-0.4l0,44.8c-14.7,0-18.8-3.4-18.8-7.7l-0.1-37.4c0-9.2-24-9.2-24-0.1l-0.1,45.1c-14.7,0-18.8-3.6-18.8-7.7
		V730.1L623.5,730.1z M589.1,681.7c4.7,0,8.4,3.8,8.4,8.4c0,4.7-3.8,8.4-8.4,8.4c-4.7,0-8.4-3.8-8.4-8.4
		C580.6,685.5,584.4,681.7,589.1,681.7L589.1,681.7z M597.7,757.4c1.3,4.9,8,2.5,11,1.4l1.4,13.4c-3.9,1.7-8.3,2.6-13.2,2.6
		c-8.7,0-15.4-3.4-15.8-12.3l-0.5-54.7c6.6,0,16.7,0,16.7,6.5L597.7,757.4L597.7,757.4z M291.3,728.2c0,10.2,2.3,17.9,6.8,23.2
		c4.6,5.3,10.3,7.9,17.4,7.9c7,0,12.8-2.6,17.3-7.8c4.5-5.2,6.7-13,6.7-23.5c0-10.3-2.2-18-6.5-23.1c-4.4-5.1-10.2-7.6-17.4-7.6
		c-7.3,0-13.1,2.6-17.5,7.7C293.6,710.1,291.3,717.8,291.3,728.2L291.3,728.2z M273.2,728.8c0-9.2,1.3-16.9,4-23.1
		c2-4.6,4.7-8.7,8.1-12.3c3.4-3.6,7.2-6.3,11.3-8.1c5.4-2.4,11.7-3.6,18.8-3.6c12.8,0,23.1,4.1,30.8,12.3
		c7.7,8.2,11.6,19.7,11.6,34.3c0,14.5-3.8,25.9-11.5,34.1c-7.6,8.2-17.9,12.3-30.6,12.3c-13,0-23.3-4.1-30.9-12.2
		C277,754.3,273.2,743.1,273.2,728.8L273.2,728.8z M416.6,708c0,10.7-4.3,13.7-11.8,13.7H391l0.3,35.6l25.8,0
		c0,6.2-2.4,17.3-12.2,17.3l-14.3,0c-8.7,0-15.4-3.4-15.8-12.3l-0.5-67.3c0-8.3,10.2-10.1,16.7-10.1v23H416.6L416.6,708z
		 M446.7,689.9v26.4c5.7-6.5,12.4-9.8,20.3-9.8c10.7,0,19.4,5.2,21.6,15.5c0.6,2.8,0.9,7.1,0.9,12.9v38.2c-6.7,0-17.6-0.5-17.6-7.5
		v-27c0-4.9-0.2-8.5-0.5-10.9c-1.7-11.5-19.2-10.5-23.2,0.2c-1.1,2.8-1.6,7-1.6,12.4v32.7c-6.7,0-17.6-1.3-17.6-7.9v-82.1
		C435.4,683.2,446.7,683.2,446.7,689.9L446.7,689.9z M547.2,741.9c-2.2,0.7-5.7,1.6-10.5,2.6c-5.2,1.1-12.7,2.5-12.7,9.1
		c0,14,23.2,9.1,23.2-1L547.2,741.9L547.2,741.9z M524.2,727.9l-15.6-2.8c1.8-6.3,4.8-11,9.1-14c4.3-3,10.7-4.5,19.1-4.5
		c7.7,0,13.4,0.9,17.2,2.7c3.7,1.8,6.4,4.1,7.9,6.9c1.5,2.8,2.3,7.9,2.3,15.4l-0.2,20.1c0,22-38.5,29.5-51.3,17.4
		c-3.9-3.6-5.8-8.3-5.8-13.8c0-3.7,0.9-7,2.6-9.8c1.8-2.9,4.2-5.1,7.4-6.6c3.2-1.5,7.7-2.9,13.7-4c8-1.5,13.6-2.9,16.7-4.2V729
		c0-3.3-0.8-5.7-2.4-7.1c-1.6-1.4-4.7-2.1-9.2-2.1c-3.1,0-5.5,0.6-7.2,1.8C526.7,722.8,525.3,724.9,524.2,727.9L524.2,727.9z"/>
	<path class="st10" d="M623.5,727.4c0-34,53.7-29.5,53.7-13.2c0-17.9,50.7-22.7,50.7,7.2l0,49.1c-15,0-18.8-3-18.8-7.9l0-36.5
		c0-14.8-24-14.8-24-0.4l0,44.8c-14.7,0-18.8-3.4-18.8-7.7l-0.1-37.4c0-9.2-24-9.2-24-0.1l-0.1,45.1c-14.7,0-18.8-3.6-18.8-7.7
		V727.4L623.5,727.4z M589.1,678.9c4.7,0,8.4,3.8,8.4,8.4s-3.8,8.4-8.4,8.4c-4.7,0-8.4-3.8-8.4-8.4S584.4,678.9,589.1,678.9
		L589.1,678.9z M597.7,754.6c1.3,5,8,2.5,11,1.4l1.4,13.4c-3.9,1.7-8.3,2.6-13.2,2.6c-8.7,0-15.4-3.4-15.8-12.3l-0.5-54.7
		c6.6,0,16.7,0,16.7,6.5L597.7,754.6L597.7,754.6z M291.3,725.4c0,10.2,2.3,17.9,6.8,23.2c4.6,5.3,10.3,7.9,17.4,7.9
		c7,0,12.8-2.6,17.3-7.8c4.5-5.2,6.7-13,6.7-23.5c0-10.3-2.2-18-6.5-23.1c-4.4-5.1-10.2-7.6-17.4-7.6c-7.3,0-13.1,2.6-17.5,7.7
		C293.6,707.3,291.3,715,291.3,725.4L291.3,725.4z M273.2,726c0-9.2,1.3-16.9,4-23.1c2-4.6,4.7-8.7,8.1-12.3
		c3.4-3.6,7.2-6.3,11.3-8.1c5.4-2.4,11.7-3.6,18.8-3.6c12.8,0,23.1,4.1,30.8,12.3c7.7,8.2,11.6,19.7,11.6,34.3
		c0,14.5-3.8,25.9-11.5,34.1c-7.6,8.2-17.9,12.3-30.6,12.3c-13,0-23.3-4.1-30.9-12.2C277,751.6,273.2,740.3,273.2,726L273.2,726z
		 M416.6,705.3c0,10.7-4.3,13.7-11.8,13.7H391l0.3,35.6l25.8,0c0,6.2-2.4,17.3-12.2,17.3l-14.3,0c-8.7,0-15.4-3.4-15.8-12.3
		l-0.5-67.3c0-8.3,10.2-10.1,16.7-10.1v23H416.6L416.6,705.3z M446.7,687.2v26.4c5.7-6.5,12.4-9.8,20.3-9.8
		c10.7,0,19.4,5.2,21.6,15.5c0.6,2.8,0.9,7.1,0.9,12.9v38.2c-6.7,0-17.6-0.5-17.6-7.5v-27c0-4.9-0.2-8.5-0.5-10.9
		c-1.7-11.5-19.2-10.5-23.2,0.2c-1.1,2.8-1.6,7-1.6,12.4v32.7c-6.7,0-17.6-1.3-17.6-7.9v-82.1C435.4,680.5,446.7,680.4,446.7,687.2
		L446.7,687.2z M547.2,739.2c-2.2,0.7-5.7,1.6-10.5,2.6c-5.2,1.1-12.7,2.5-12.7,9.1c0,14,23.2,9.1,23.2-1L547.2,739.2L547.2,739.2z
		 M524.2,725.2l-15.6-2.8c1.8-6.3,4.8-11,9.1-14c4.3-3,10.7-4.5,19.1-4.5c7.7,0,13.4,0.9,17.2,2.7c3.7,1.8,6.4,4.1,7.9,6.9
		c1.5,2.8,2.3,7.9,2.3,15.4L564,749c0,22-38.5,29.5-51.3,17.4c-3.9-3.6-5.8-8.3-5.8-13.8c0-3.7,0.9-7,2.6-9.8
		c1.8-2.9,4.2-5.1,7.4-6.6c3.2-1.5,7.7-2.9,13.7-4c8-1.5,13.6-2.9,16.7-4.2v-1.7c0-3.3-0.8-5.7-2.4-7.1c-1.6-1.4-4.7-2.1-9.2-2.1
		c-3.1,0-5.5,0.6-7.2,1.8C526.7,720,525.3,722.1,524.2,725.2L524.2,725.2z"/>
	<path class="st11" d="M623.5,724.6c0-34,53.7-29.5,53.7-13.2c0-17.9,50.7-22.7,50.7,7.2l0,49.1c-15,0-18.8-3-18.8-7.9l0-36.5
		c0-14.8-24-14.8-24-0.4l0,44.8c-14.7,0-18.8-3.4-18.8-7.7l-0.1-37.4c0-9.2-24-9.2-24-0.1l-0.1,45.1c-14.7,0-18.8-3.6-18.8-7.7
		V724.6L623.5,724.6z M589.1,676.2c4.7,0,8.4,3.8,8.4,8.4c0,4.7-3.8,8.4-8.4,8.4c-4.7,0-8.4-3.8-8.4-8.4
		C580.6,679.9,584.4,676.2,589.1,676.2L589.1,676.2z M597.7,751.8c1.3,4.9,8,2.5,11,1.4l1.4,13.4c-3.9,1.7-8.3,2.6-13.2,2.6
		c-8.7,0-15.4-3.4-15.8-12.3l-0.5-54.7c6.6,0,16.7,0,16.7,6.5L597.7,751.8L597.7,751.8z M291.3,722.7c0,10.2,2.3,17.9,6.8,23.2
		c4.6,5.3,10.3,7.9,17.4,7.9c7,0,12.8-2.6,17.3-7.8c4.5-5.2,6.7-13,6.7-23.5c0-10.3-2.2-18-6.5-23.1c-4.4-5.1-10.2-7.6-17.4-7.6
		c-7.3,0-13.1,2.6-17.5,7.7C293.6,704.5,291.3,712.3,291.3,722.7L291.3,722.7z M273.2,723.3c0-9.2,1.3-16.9,4-23.1
		c2-4.6,4.7-8.7,8.1-12.3c3.4-3.6,7.2-6.3,11.3-8.1c5.4-2.4,11.7-3.6,18.8-3.6c12.8,0,23.1,4.1,30.8,12.3
		c7.7,8.2,11.6,19.7,11.6,34.3c0,14.5-3.8,25.9-11.5,34.1c-7.6,8.2-17.9,12.3-30.6,12.3c-13,0-23.3-4.1-30.9-12.2
		C277,748.8,273.2,737.6,273.2,723.3L273.2,723.3z M416.6,702.5c0,10.7-4.3,13.7-11.8,13.7H391l0.3,35.6l25.8,0
		c0,6.2-2.4,17.3-12.2,17.3l-14.3,0c-8.7,0-15.4-3.4-15.8-12.3l-0.5-67.3c0-8.3,10.2-10.1,16.7-10.1v23H416.6L416.6,702.5z
		 M446.7,684.4v26.4c5.7-6.5,12.4-9.8,20.3-9.8c10.7,0,19.4,5.2,21.6,15.5c0.6,2.8,0.9,7.1,0.9,12.9v38.2c-6.7,0-17.6-0.5-17.6-7.5
		v-27c0-4.9-0.2-8.5-0.5-10.9c-1.7-11.5-19.2-10.5-23.2,0.2c-1.1,2.8-1.6,7-1.6,12.4v32.7c-6.7,0-17.6-1.3-17.6-7.9v-82.1
		C435.4,677.7,446.7,677.6,446.7,684.4L446.7,684.4z M547.2,736.4c-2.2,0.7-5.7,1.6-10.5,2.6c-5.2,1.1-12.7,2.5-12.7,9.1
		c0,14,23.2,9.1,23.2-1L547.2,736.4L547.2,736.4z M524.2,722.4l-15.6-2.8c1.8-6.3,4.8-11,9.1-14c4.3-3,10.7-4.5,19.1-4.5
		c7.7,0,13.4,0.9,17.2,2.7c3.7,1.8,6.4,4.1,7.9,6.9c1.5,2.8,2.3,7.9,2.3,15.4l-0.2,20.1c0,22-38.5,29.5-51.3,17.4
		c-3.9-3.6-5.8-8.3-5.8-13.8c0-3.7,0.9-7,2.6-9.8c1.8-2.9,4.2-5.1,7.4-6.6c3.2-1.5,7.7-2.9,13.7-4c8-1.5,13.6-2.9,16.7-4.2v-1.7
		c0-3.3-0.8-5.7-2.4-7.1c-1.6-1.4-4.7-2.1-9.2-2.1c-3.1,0-5.5,0.6-7.2,1.8C526.7,717.2,525.3,719.4,524.2,722.4L524.2,722.4z"/>
</g>
</svg>
